Coordinates
version=1
nRows=17
nColumns=23
inDegrees=yes

Units are S.I. units (second, meters, Newtons, ...)
If the header above contains a line with 'inDegrees', this indicates whether rotational values are in degrees (yes) or radians (no).

endheader
time	pelvis_tilt	pelvis_list	pelvis_rotation	pelvis_tx	pelvis_ty	pelvis_tz	hip_flexion_r	hip_adduction_r	hip_rotation_r	knee_angle_r	knee_angle_r_beta	ankle_angle_r	subtalar_angle_r	mtp_angle_r	hip_flexion_l	hip_adduction_l	hip_rotation_l	knee_angle_l	knee_angle_l_beta	ankle_angle_l	subtalar_angle_l	mtp_angle_l
     15.00000000	     -3.22564510	     -6.86426820	     -7.59911004	      2.14495797	      0.92731278	      1.02130452	     18.34724591	     10.46010240	     -3.88281140	     50.10566915	      0.87450890	     28.36661361	      3.14155062	      0.00000000	     27.34766041	    -10.68281433	     -0.01489589	    103.11547305	      1.79970451	      0.76098295	     -9.77504547	      0.00000000
     15.00666667	     -2.67038404	     -6.95895589	     -7.14071501	      2.14531921	      0.93138901	      1.02057356	     15.79227198	     10.32155934	     -3.92852696	     48.50339664	      0.84654397	     28.24120925	      3.34731864	      0.00000000	     28.07028022	    -10.72124518	      0.33746587	    102.29921804	      1.78545818	      1.65359660	     -9.48462841	      0.00000000
     15.01333333	     -3.06146269	     -6.45204545	     -7.16210016	      2.14515765	      0.93438094	      1.02047163	     14.53196080	      9.84985760	     -3.40811429	     47.31032400	      0.82572092	     28.17182790	      3.56259902	      0.00000000	     29.74503560	    -10.35717638	      0.11652220	    101.29752942	      1.76797541	      2.23764397	     -9.53469808	      0.00000000
     15.02000000	     -2.77121171	     -6.19137728	     -6.82681614	      2.14575617	      0.93895976	      1.01995231	     12.23579234	      9.52058164	     -3.11721144	     45.53563573	      0.79474677	     27.65212848	      3.27351210	      0.00000000	     30.50504659	    -10.02907379	      0.11476785	     99.94854466	      1.74443119	      2.96784375	     -9.62129282	      0.00000000
     15.02666667	     -3.30983342	     -5.60730994	     -6.87524087	      2.14604326	      0.94255996	      1.01998653	     11.06375386	      9.00379602	     -2.58919378	     44.14198958	      0.77042306	     27.30984995	      3.54724613	      0.00000000	     32.07290133	     -9.61922954	     -0.29686052	     98.45921158	      1.71843742	      3.58877067	     -9.63675548	      0.00000000
     15.03333333	     -2.88082174	     -5.18061657	     -6.53111026	      2.14720649	      0.94806898	      1.01957428	      8.52741870	      8.48667052	     -2.34393846	     42.09563660	      0.73470746	     26.13549479	      2.98461865	      0.00000000	     32.36633327	     -9.15940501	     -0.59326170	     96.56950458	      1.68545581	      4.17720042	     -9.79991920	      0.00000000
     15.04000000	     -2.77727172	     -4.86601523	     -6.42221188	      2.14831772	      0.95346803	      1.01966693	      6.32719496	      8.32030992	     -1.61144055	     39.97407559	      0.69767923	     24.75142441	      2.24341754	      0.00000000	     32.87424164	     -9.01901760	     -1.03437788	     94.53419439	      1.64993295	      4.78352317	     -9.61545422	      0.00000000
     15.04666667	     -2.76639887	     -4.30311767	     -6.18459316	      2.14968952	      0.95884806	      1.01947193	      4.32013427	      7.73607399	     -1.35257737	     37.95508581	      0.66244122	     23.20251238	      1.90940162	      0.00000000	     33.38347640	     -8.48212568	     -1.49377767	     92.26221113	      1.61027936	      5.23147816	     -9.70487413	      0.00000000
     15.05333333	     -2.73288246	     -3.72044378	     -5.91220802	      2.15127052	      0.96441831	      1.01923154	      2.28581745	      7.13416411	     -1.15296697	     35.86782316	      0.62601161	     21.34805312	      1.41260985	      0.00000000	     33.73874291	     -7.92196383	     -1.99960591	     89.79097251	      1.56714811	      5.64082093	     -9.63175626	      0.00000000
     15.06000000	     -2.74217864	     -3.04962163	     -5.55232696	      2.15303254	      0.96995988	      1.01880982	      0.36417211	      6.38447383	     -1.24970905	     33.84550378	      0.59071548	     19.31637900	      1.06683088	      0.00000000	     34.03771194	     -7.19039281	     -2.49245707	     87.12965650	      1.52069938	      5.95789586	     -9.56351694	      0.00000000
     15.06666667	     -3.02466841	     -2.26486347	     -5.27565968	      2.15469993	      0.97508843	      1.01845697	     -1.08404654	      5.48917309	     -1.53109078	     32.08710550	      0.56002564	     17.02926379	      0.95606508	      0.00000000	     34.53820525	     -6.38024089	     -3.09103412	     84.32028248	      1.47166656	      6.21457490	     -9.26121703	      0.00000000
     15.07333333	     -3.09713486	     -1.57216715	     -4.86638841	      2.15674252	      0.98045768	      1.01793534	     -2.82437300	      4.68534925	     -1.99570816	     30.18862911	      0.52689097	     14.63386791	      0.71812910	      0.00000000	     34.67860009	     -5.65351767	     -3.67508891	     81.32916272	      1.41946167	      6.38437262	     -8.96742755	      0.00000000
     15.08000000	     -2.69290947	     -1.13444464	     -4.42665451	      2.15889751	      0.98660651	      1.01744718	     -5.29730104	      4.37091386	     -1.75197609	     27.80365344	      0.48526530	     11.77090859	     -0.61922129	      0.00000000	     34.16951264	     -5.12110789	     -4.12876411	     78.17425941	      1.36439822	      6.56477110	     -8.40673641	      0.00000000
     15.08666667	     -2.73468562	     -0.45472626	     -3.98079162	      2.16095910	      0.99179140	      1.01674417	     -6.93027223	      3.60278251	     -2.40850189	     26.07408902	      0.45507870	      9.12516654	     -0.76377957	      0.00000000	     34.09118379	     -4.29756136	     -4.64397973	     74.88633163	      1.30701305	      6.59079125	     -7.85957986	      0.00000000
     15.09333333	     -2.96176560	      0.25081708	     -3.53293131	      2.16293978	      0.99647320	      1.01592820	     -8.19006826	      2.79326112	     -3.26097429	     24.65322629	      0.43027997	      6.48672392	     -0.82149373	      0.00000000	     34.14829177	     -3.40896549	     -5.12808746	     71.50389807	      1.24797845	      6.60027434	     -7.08054386	      0.00000000
     15.10000000	     -3.04670903	      0.85007185	     -3.08180457	      2.16493846	      1.00119018	      1.01508578	     -9.57898093	      2.13706820	     -4.04616181	     23.23788816	      0.40557766	      3.78246614	     -1.00329638	      0.00000000	     33.95622469	     -2.63246026	     -5.60225502	     67.99774540	      1.18678454	      6.57833547	     -6.16646396	      0.00000000
     15.10666667	     -3.42491182	      1.40648599	     -2.71378607	      2.16675913	      1.00520511	      1.01430378	    -10.41388611	      1.47671959	     -4.98190337	     22.26055099	      0.38851991	      1.11236011	     -1.09747713	      0.00000000	     34.02310294	     -1.95690475	     -6.15113729	     64.42501673	      1.12442866	      6.49297354	     -5.05705858	      0.00000000
